# xmcd CD database file
#
# Track frame offsets:
#	150
#	11257
#	24467
#	38012
#	50772
#	62691
#	75864
#	87322
#	99667
#	111166
#	121841
#	132031
#	142398
#	152950
#	163501
#	173616
#
# Disc length: 2459 seconds
#
# Revision: 0
# Processed by: cddbd v1.5.1PL2 Copyright (c) Steve Scherf et al.
# Submitted via: CDex 1.51
#
DISCID=c5099910
DTITLE=Robert Johnson - King Of The Delta Blues Singers Vol. II
DYEAR=1900
DGENRE=Blues
TTITLE0=Kindhearted Woman Blues
TTITLE1=I Believe I'll Dust My Broom
TTITLE2=Sweet Home Chicago
TTITLE3=Rambling On My Mind
TTITLE4=Phonograph Blues
TTITLE5=They're Red Hot
TTITLE6=Dead Shrimp Blues
TTITLE7=Preachin' Blues
TTITLE8=I'm A Steady Rollin' Man
TTITLE9=From Fout Till Late
TTITLE10=Little Queen Of Spades
TTITLE11=Malted Milk
TTITLE12=Drunkin Hearted Man
TTITLE13=Stop Breakin Down Blues
TTITLE14=Honeymoon Blues
TTITLE15=Love In Vain
EXTD=
EXTT0=
EXTT1=
EXTT2=
EXTT3=
EXTT4=
EXTT5=
EXTT6=
EXTT7=
EXTT8=
EXTT9=
EXTT10=
EXTT11=
EXTT12=
EXTT13=
EXTT14=
EXTT15=
PLAYORDER=
